<svg width="144" height="42" viewBox="0 0 144 42" fill="none" xmlns="http://www.w3.org/2000/svg">
<path d="M1.65044 20.974C1.7251 20.8713 1.81844 20.792 1.93044 20.736L5.83644 19.042C5.90177 19.0047 5.98577 18.986 6.08844 18.986C6.12577 18.9953 6.1631 19.0047 6.20044 19.014C6.23777 19.0233 6.27044 19.042 6.29844 19.07C6.43844 19.154 6.50844 19.2847 6.50844 19.462V20.568C6.50844 20.8573 6.38711 21.0533 6.14444 21.156C5.98577 21.2213 5.83644 21.2867 5.69644 21.352C5.55644 21.408 5.42111 21.464 5.29044 21.52C5.07577 21.604 4.87977 21.6833 4.70244 21.758C4.53444 21.8327 4.45044 21.8747 4.45044 21.884L6.14444 22.598C6.38711 22.7007 6.50844 22.8967 6.50844 23.186V24.292C6.50844 24.4693 6.43844 24.6 6.29844 24.684C6.27044 24.712 6.23777 24.7307 6.20044 24.74C6.1631 24.7493 6.12577 24.7587 6.08844 24.768C5.98577 24.768 5.90177 24.7493 5.83644 24.712L3.89044 23.858L2.54644 23.27L1.93044 23.004C1.81844 22.9573 1.7251 22.8827 1.65044 22.78C1.57577 22.668 1.5291 22.5327 1.51044 22.374C1.5011 22.2153 1.49644 22.0473 1.49644 21.87C1.49644 21.702 1.5011 21.5387 1.51044 21.38C1.5291 21.2213 1.57577 21.086 1.65044 20.974ZM17.585 16.2C17.7156 16.2 17.8183 16.228 17.893 16.284C17.9676 16.3307 18.0283 16.3773 18.075 16.424C18.0843 16.424 18.0936 16.4287 18.103 16.438L25.187 23.088V16.746C25.187 16.5873 25.2383 16.4567 25.341 16.354C25.4436 16.2513 25.5743 16.2 25.733 16.2H26.965C27.1236 16.2 27.2543 16.2513 27.357 16.354C27.469 16.4567 27.525 16.5873 27.525 16.746V25.454C27.525 25.5193 27.5156 25.5893 27.497 25.664C27.4783 25.7293 27.4363 25.79 27.371 25.846C27.315 25.9113 27.2496 25.9533 27.175 25.972C27.1003 25.9907 27.0303 26 26.965 26H25.439C25.3083 26 25.2056 25.9767 25.131 25.93C25.0563 25.874 24.9956 25.8273 24.949 25.79L24.921 25.762L17.823 19.112V25.454C17.823 25.51 17.8136 25.5753 17.795 25.65C17.7763 25.7153 17.7343 25.7807 17.669 25.846C17.613 25.9113 17.5476 25.9533 17.473 25.972C17.4076 25.9907 17.3423 26 17.277 26H16.045C15.8863 26 15.7556 25.9487 15.653 25.846C15.5503 25.7433 15.499 25.6127 15.499 25.454V16.746C15.499 16.5873 15.5503 16.4567 15.653 16.354C15.7556 16.2513 15.8863 16.2 16.045 16.2H17.585ZM29.1806 16.466C29.2179 16.3913 29.2739 16.3307 29.3486 16.284C29.4419 16.228 29.5399 16.2 29.6426 16.2H31.0846C31.1219 16.2 31.2199 16.2233 31.3786 16.27C31.4532 16.3167 31.5139 16.3727 31.5606 16.438C31.6072 16.494 31.6446 16.5407 31.6726 16.578L36.0826 23.41L38.2946 19.994C38.5746 19.5647 38.8452 19.1493 39.1066 18.748C39.3679 18.3373 39.6012 17.9733 39.8066 17.656C40.0212 17.3293 40.1892 17.0727 40.3106 16.886C40.4412 16.69 40.5066 16.592 40.5066 16.592C40.5812 16.48 40.6606 16.3867 40.7446 16.312C40.8286 16.2373 40.9406 16.2 41.0806 16.2H42.5226C42.6159 16.2 42.7139 16.228 42.8166 16.284C42.8912 16.3307 42.9472 16.3913 42.9846 16.466C43.0219 16.5313 43.0406 16.6107 43.0406 16.704C43.0312 16.76 43.0172 16.8113 42.9986 16.858C42.9799 16.9047 42.9612 16.9513 42.9426 16.998L40.1426 21.31L37.3426 25.622C37.2866 25.734 37.2072 25.8273 37.1046 25.902C37.0019 25.9673 36.8852 26 36.7546 26H35.4106C35.2799 26 35.1679 25.9673 35.0746 25.902C34.9906 25.8367 34.9112 25.748 34.8366 25.636L29.2226 16.998C29.2039 16.9513 29.1806 16.9047 29.1526 16.858C29.1339 16.8113 29.1246 16.76 29.1246 16.704C29.1246 16.6107 29.1432 16.5313 29.1806 16.466ZM44.6804 24.544C44.6804 24.4413 44.6851 24.3853 44.6944 24.376C44.6944 24.2547 44.7318 24.1427 44.8064 24.04C44.8718 23.9747 44.9324 23.928 44.9884 23.9C45.0444 23.872 45.1191 23.858 45.2124 23.858H55.4324C55.5538 23.858 55.6658 23.8907 55.7684 23.956C55.8804 24.0213 55.9458 24.1193 55.9644 24.25C55.9738 24.2593 55.9784 24.3107 55.9784 24.404V25.454C55.9784 25.51 55.9691 25.5753 55.9504 25.65C55.9318 25.7153 55.8944 25.7807 55.8384 25.846L55.7964 25.888C55.7404 25.9347 55.6798 25.9673 55.6144 25.986C55.5491 25.9953 55.4884 26 55.4324 26H45.2264C45.0958 26 44.9838 25.9673 44.8904 25.902C44.8811 25.8927 44.8718 25.888 44.8624 25.888C44.8531 25.8787 44.8438 25.8647 44.8344 25.846C44.7784 25.79 44.7364 25.7293 44.7084 25.664C44.6898 25.5893 44.6804 25.524 44.6804 25.468V24.544ZM44.6944 16.704C44.7038 16.6573 44.7131 16.606 44.7224 16.55C44.7411 16.4847 44.7738 16.4287 44.8204 16.382L44.8904 16.326C44.9558 16.27 45.0258 16.2327 45.1004 16.214C45.1751 16.1953 45.2404 16.1907 45.2964 16.2H55.3764C55.4791 16.2 55.5631 16.2187 55.6284 16.256C55.7031 16.3027 55.7591 16.3493 55.7964 16.396C55.8431 16.4333 55.8758 16.4987 55.8944 16.592C55.9038 16.6387 55.9084 16.676 55.9084 16.704C55.9178 16.7227 55.9224 16.7367 55.9224 16.746V17.796C55.9224 17.8613 55.9131 17.9313 55.8944 18.006C55.8758 18.0713 55.8338 18.1367 55.7684 18.202C55.7031 18.258 55.6331 18.2953 55.5584 18.314C55.4931 18.3327 55.4324 18.342 55.3764 18.342H45.2264C45.1798 18.342 45.1238 18.3373 45.0584 18.328C45.0024 18.3187 44.9511 18.2907 44.9044 18.244C44.8858 18.2347 44.8718 18.23 44.8624 18.23C44.8624 18.2207 44.8531 18.2113 44.8344 18.202C44.7691 18.1367 44.7271 18.0713 44.7084 18.006C44.6898 17.9313 44.6804 17.866 44.6804 17.81V16.872C44.6804 16.844 44.6804 16.816 44.6804 16.788C44.6898 16.76 44.6944 16.732 44.6944 16.704ZM44.6804 20.68L44.7084 20.512C44.7084 20.4093 44.7504 20.3067 44.8344 20.204L44.9044 20.148C44.9698 20.092 45.0398 20.0593 45.1144 20.05C45.1891 20.0313 45.2591 20.0267 45.3244 20.036H55.2504C55.2971 20.036 55.3484 20.0407 55.4044 20.05C55.4698 20.0593 55.5258 20.0873 55.5724 20.134C55.6191 20.1527 55.6611 20.1947 55.6984 20.26C55.7358 20.3253 55.7591 20.3813 55.7684 20.428C55.7778 20.4373 55.7824 20.4887 55.7824 20.582V21.618C55.7824 21.786 55.7311 21.9213 55.6284 22.024C55.5351 22.1173 55.4044 22.164 55.2364 22.164H45.3944H45.2264C45.1798 22.164 45.1238 22.1593 45.0584 22.15C45.0024 22.1407 44.9464 22.1127 44.8904 22.066C44.8811 22.0567 44.8718 22.052 44.8624 22.052C44.8531 22.0427 44.8438 22.0287 44.8344 22.01C44.7411 21.9353 44.6898 21.8373 44.6804 21.716V20.68ZM67.054 16.2C67.9313 16.2 68.5986 16.4333 69.056 16.9C69.5226 17.3573 69.756 18.0247 69.756 18.902V20.848C69.756 21.3053 69.7 21.6927 69.588 22.01C69.4853 22.318 69.322 22.5747 69.098 22.78C68.8833 22.9853 68.6126 23.144 68.286 23.256C67.9593 23.368 67.5766 23.4473 67.138 23.494C67.11 23.494 67.0913 23.508 67.082 23.536C67.0726 23.5547 67.0773 23.5733 67.096 23.592C67.2453 23.732 67.432 23.9093 67.656 24.124C67.88 24.3293 68.1086 24.544 68.342 24.768C68.5753 24.992 68.7946 25.2067 69 25.412C69.2146 25.6173 69.3826 25.7807 69.504 25.902C69.5226 25.9207 69.5226 25.944 69.504 25.972C69.4946 25.9907 69.4806 26 69.462 26H66.284C66.256 26 66.242 25.9953 66.242 25.986C65.8406 25.594 65.4113 25.1787 64.954 24.74C64.4966 24.292 64.0533 23.8627 63.624 23.452C63.1946 23.032 62.798 22.6493 62.434 22.304C62.0793 21.9587 61.7993 21.688 61.594 21.492C61.5753 21.4733 61.5706 21.4547 61.58 21.436C61.5893 21.408 61.608 21.394 61.636 21.394H66.704C66.984 21.394 67.1706 21.3473 67.264 21.254C67.3666 21.1607 67.418 20.974 67.418 20.694V19.042C67.418 18.874 67.404 18.7527 67.376 18.678C67.348 18.594 67.3153 18.5333 67.278 18.496C67.2406 18.4493 67.18 18.412 67.096 18.384C67.012 18.356 66.8813 18.342 66.704 18.342H58.178C58.1406 18.342 58.122 18.3233 58.122 18.286V16.746C58.122 16.5873 58.1733 16.4567 58.276 16.354C58.3786 16.2513 58.5093 16.2 58.668 16.2H67.054ZM82.2573 16.102C82.5466 16.102 82.8173 16.158 83.0693 16.27C83.3213 16.3727 83.5406 16.5173 83.7273 16.704C83.914 16.8907 84.0586 17.11 84.1613 17.362C84.2733 17.614 84.3293 17.8847 84.3293 18.174V18.188C84.3293 18.2253 84.3106 18.244 84.2733 18.244H75.3413C75.1453 18.244 74.9913 18.2627 74.8793 18.3C74.7673 18.3373 74.688 18.3793 74.6413 18.426C74.5946 18.4727 74.5526 18.5427 74.5153 18.636C74.4873 18.72 74.4733 18.8413 74.4733 19C74.4733 19.2893 74.534 19.4947 74.6553 19.616C74.7113 19.6813 74.7953 19.7373 74.9073 19.784C75.0193 19.8213 75.1826 19.8493 75.3973 19.868L81.2913 20.204C82.2246 20.2507 82.962 20.512 83.5033 20.988C84.054 21.4547 84.3293 22.1733 84.3293 23.144C84.3293 24.152 84.0586 24.88 83.5173 25.328C82.9853 25.776 82.234 26 81.2633 26H74.2773C73.9973 26 73.7313 25.9487 73.4793 25.846C73.2273 25.734 73.0033 25.5893 72.8073 25.412C72.6206 25.2253 72.4713 25.006 72.3593 24.754C72.2473 24.502 72.1866 24.236 72.1773 23.956C72.1773 23.9093 72.196 23.886 72.2333 23.886H72.7513C72.9846 23.886 73.2833 23.886 73.6473 23.886C74.0206 23.886 74.4266 23.886 74.8653 23.886C75.304 23.8767 75.7613 23.872 76.2373 23.872C76.7226 23.872 77.1986 23.872 77.6653 23.872C78.2253 23.872 78.79 23.872 79.3593 23.872C79.938 23.872 80.5353 23.8673 81.1513 23.858C81.45 23.858 81.6693 23.8113 81.8093 23.718C81.9493 23.6153 82.0193 23.41 82.0193 23.102C82.0193 22.8127 81.9633 22.6027 81.8513 22.472C81.7953 22.416 81.7113 22.3647 81.5993 22.318C81.4873 22.2713 81.324 22.2433 81.1093 22.234L75.2153 21.898C74.2726 21.842 73.5306 21.5807 72.9893 21.114C72.448 20.6473 72.1773 19.924 72.1773 18.944C72.1773 17.9453 72.448 17.222 72.9893 16.774C73.5306 16.326 74.282 16.102 75.2433 16.102H82.2573ZM97.5901 16.2C97.6555 16.2 97.7208 16.214 97.7861 16.242C97.8608 16.2607 97.9308 16.298 97.9961 16.354C98.0988 16.4847 98.1501 16.6153 98.1501 16.746V17.796C98.1501 17.964 98.0941 18.0993 97.9821 18.202C97.8795 18.2953 97.7488 18.342 97.5901 18.342H93.2221V25.454C93.2221 25.51 93.2128 25.5753 93.1941 25.65C93.1755 25.7153 93.1335 25.7807 93.0681 25.846C93.0121 25.9113 92.9468 25.9533 92.8721 25.972C92.8068 25.9907 92.7415 26 92.6761 26H91.4721C91.4068 26 91.3368 25.9907 91.2621 25.972C91.1968 25.9533 91.1361 25.9113 91.0801 25.846C91.0148 25.7807 90.9728 25.7153 90.9541 25.65C90.9355 25.5753 90.9261 25.51 90.9261 25.454V18.342H86.5441C86.4881 18.342 86.4228 18.3327 86.3481 18.314C86.2828 18.2953 86.2175 18.258 86.1521 18.202C86.0868 18.1367 86.0448 18.0713 86.0261 18.006C86.0075 17.9313 85.9981 17.8613 85.9981 17.796V16.746C85.9981 16.5873 86.0495 16.4567 86.1521 16.354C86.2548 16.2513 86.3855 16.2 86.5441 16.2H97.5901ZM95.8606 25.496C95.8606 25.44 95.8699 25.3887 95.8886 25.342C95.9166 25.2953 95.9399 25.2487 95.9586 25.202L101.573 16.564C101.591 16.5267 101.624 16.4847 101.671 16.438C101.717 16.382 101.778 16.3307 101.853 16.284C101.937 16.228 102.035 16.2 102.147 16.2H103.491C103.621 16.2 103.733 16.2373 103.827 16.312C103.929 16.3773 104.013 16.466 104.079 16.578L109.679 25.216C109.725 25.2907 109.758 25.384 109.777 25.496C109.777 25.6733 109.702 25.818 109.553 25.93C109.431 25.9767 109.333 26 109.259 26H107.817C107.705 26 107.611 25.9767 107.537 25.93C107.453 25.8833 107.387 25.832 107.341 25.776C107.294 25.7107 107.261 25.6593 107.243 25.622L106.949 25.16L106.473 24.446L102.875 18.874C102.837 18.8367 102.8 18.8367 102.763 18.874L100.523 22.332L99.1786 24.446L98.4086 25.622C98.3806 25.6687 98.3433 25.72 98.2966 25.776C98.2499 25.832 98.1893 25.8833 98.1146 25.93C97.9559 25.9767 97.8579 26 97.8206 26H96.3786C96.3039 26 96.2059 25.9767 96.0846 25.93C95.9353 25.818 95.8606 25.6733 95.8606 25.496ZM120.376 25.3C120.18 25.1507 119.937 24.964 119.648 24.74C119.368 24.5067 119.065 24.2593 118.738 23.998C118.411 23.7273 118.071 23.4473 117.716 23.158C117.371 22.8687 117.03 22.584 116.694 22.304C116.293 21.9773 115.882 21.6413 115.462 21.296C115.042 20.9507 114.608 20.6007 114.16 20.246C114.123 20.2087 114.127 20.176 114.174 20.148L120.194 16.452C120.203 16.452 120.213 16.4473 120.222 16.438C120.343 16.3353 120.511 16.2607 120.726 16.214C120.745 16.2047 120.81 16.2 120.922 16.2H122.742C122.863 16.2 122.961 16.2327 123.036 16.298C123.12 16.3633 123.176 16.4427 123.204 16.536C123.232 16.6293 123.227 16.7273 123.19 16.83C123.162 16.9327 123.097 17.0167 122.994 17.082C122.471 17.4087 121.921 17.754 121.342 18.118C120.773 18.4727 120.236 18.8087 119.732 19.126C119.228 19.4433 118.794 19.714 118.43 19.938C118.066 20.162 117.837 20.302 117.744 20.358C117.697 20.386 117.693 20.4187 117.73 20.456L118.794 21.338C119.027 21.534 119.321 21.7813 119.676 22.08C120.04 22.3693 120.432 22.6867 120.852 23.032C121.272 23.3773 121.701 23.7367 122.14 24.11C122.588 24.474 123.008 24.824 123.4 25.16C123.484 25.2347 123.535 25.3233 123.554 25.426C123.573 25.5193 123.568 25.608 123.54 25.692C123.512 25.776 123.461 25.8507 123.386 25.916C123.311 25.972 123.218 26 123.106 26H121.412C121.319 26 121.244 25.986 121.188 25.958C121.123 25.9113 121.071 25.8787 121.034 25.86C121.006 25.832 120.95 25.7807 120.866 25.706L120.74 25.594C120.693 25.5567 120.637 25.5147 120.572 25.468C120.516 25.4213 120.451 25.3653 120.376 25.3ZM113.194 16.2C113.259 16.2 113.325 16.2093 113.39 16.228C113.465 16.2467 113.53 16.2887 113.586 16.354C113.651 16.4193 113.693 16.4893 113.712 16.564C113.731 16.6293 113.74 16.69 113.74 16.746V20.596V25.454C113.74 25.51 113.731 25.5753 113.712 25.65C113.693 25.7153 113.651 25.7807 113.586 25.846C113.53 25.9113 113.465 25.9533 113.39 25.972C113.325 25.9907 113.259 26 113.194 26H111.962C111.803 26 111.673 25.9487 111.57 25.846C111.467 25.7433 111.416 25.6127 111.416 25.454V16.746C111.416 16.5873 111.467 16.4567 111.57 16.354C111.673 16.2513 111.803 16.2 111.962 16.2H113.194ZM134.534 16.536C134.646 16.2747 134.833 16.144 135.094 16.144H136.186C136.28 16.144 136.359 16.1627 136.424 16.2C136.499 16.228 136.555 16.2747 136.592 16.34C136.639 16.4147 136.662 16.4847 136.662 16.55C136.681 16.6527 136.667 16.7413 136.62 16.816L134.786 21.17C134.562 21.73 134.338 22.2667 134.114 22.78C133.9 23.284 133.704 23.746 133.526 24.166C133.424 24.4087 133.326 24.642 133.232 24.866C133.139 25.09 133.046 25.3093 132.952 25.524C132.906 25.6453 132.831 25.7433 132.728 25.818C132.635 25.8927 132.523 25.93 132.392 25.93H131.3C131.207 25.93 131.123 25.9067 131.048 25.86C130.964 25.7947 130.913 25.748 130.894 25.72C130.866 25.692 130.848 25.6593 130.838 25.622C130.829 25.5847 130.82 25.552 130.81 25.524C130.801 25.4307 130.815 25.3373 130.852 25.244L134.534 16.536ZM137.343 22.78C137.371 22.724 137.409 22.682 137.455 22.654C137.502 22.6167 137.549 22.5887 137.595 22.57L139.303 21.842C139.145 21.7767 138.995 21.716 138.855 21.66C138.715 21.5947 138.58 21.534 138.449 21.478C138.347 21.4313 138.244 21.3893 138.141 21.352C138.039 21.3147 137.95 21.2773 137.875 21.24L137.609 21.128C137.469 21.0813 137.381 21.0113 137.343 20.918C137.297 20.8527 137.264 20.7873 137.245 20.722C137.236 20.6473 137.231 20.5867 137.231 20.54V19.434C137.231 19.3407 137.25 19.2613 137.287 19.196C137.306 19.168 137.325 19.14 137.343 19.112C137.371 19.084 137.404 19.0607 137.441 19.042C137.479 19.014 137.511 18.9953 137.539 18.986C137.577 18.9767 137.614 18.9673 137.651 18.958C137.763 18.958 137.852 18.9767 137.917 19.014L139.863 19.868C140.106 19.9707 140.344 20.078 140.577 20.19C140.811 20.2927 141.021 20.3813 141.207 20.456C141.31 20.5027 141.413 20.5493 141.515 20.596C141.618 20.6427 141.721 20.6847 141.823 20.722C141.917 20.7593 142.005 20.834 142.089 20.946C142.164 21.058 142.206 21.1933 142.215 21.352C142.234 21.5107 142.243 21.6787 142.243 21.856C142.243 22.024 142.234 22.1873 142.215 22.346C142.206 22.5047 142.164 22.64 142.089 22.752C142.015 22.864 141.921 22.9433 141.809 22.99L137.917 24.684C137.852 24.7213 137.763 24.74 137.651 24.74C137.614 24.7307 137.577 24.7213 137.539 24.712C137.511 24.7027 137.479 24.684 137.441 24.656C137.404 24.6373 137.371 24.614 137.343 24.586C137.325 24.558 137.306 24.53 137.287 24.502C137.25 24.4367 137.231 24.3573 137.231 24.264V23.158C137.231 23.1113 137.236 23.0553 137.245 22.99C137.264 22.9153 137.297 22.8453 137.343 22.78Z" fill="white"/>
<path d="M26.4004 10.9425V2.5C26.4004 1.67157 27.072 1 27.9004 1H111.4C112.229 1 112.9 1.67157 112.9 2.5V11" stroke="white"/>
<path d="M26.4004 31.0575V39.5C26.4004 40.3284 27.072 41 27.9004 41H111.4C112.229 41 112.9 40.3284 112.9 39.5V31" stroke="white"/>
</svg>
